<svg xmlns="http://www.w3.org/2000/svg" viewBox="0 0 96 96" id="access"><circle cx="48" cy="48" r="48" fill="#ef4c45"></circle><path fill="#fff" d="m50.633 41.154-2.31-2.31c.592-3.646-.49-7.51-3.27-10.34-4.484-4.565-12.018-4.751-16.711-.402-5.02 4.653-5.133 12.499-.337 17.294 2.837 2.837 6.739 3.945 10.418 3.347l2.31 2.31a1 1 0 0 0 1.414 0l8.485-8.485a.998.998 0 0 0 .001-1.414zm-10.245-3.882-3.536 3.535a.497.497 0 0 1-.354.146l-.048-.002a.503.503 0 0 1-.367-.22l-3.416-5.092a2.997 2.997 0 0 1-2.53-.84 2.978 2.978 0 0 1-.879-2.121c0-.802.312-1.555.879-2.121 1.133-1.133 3.109-1.133 4.242 0 .662.661.969 1.604.84 2.53l5.092 3.415a.496.496 0 0 1 .219.366.49.49 0 0 1-.142.404zm-6.205-4.082a1.977 1.977 0 0 0-.509-1.925c-.756-.756-2.072-.756-2.828 0-.378.378-.586.88-.586 1.414s.208 1.036.586 1.414a1.976 1.976 0 0 0 1.925.509.499.499 0 0 1 .542.205l3.262 4.863 2.675-2.676-4.863-3.262a.496.496 0 0 1-.204-.542zm9.733 18.217 2.942 2.942 3.634.491.393 3.536 1.571 1.571 1.964.393.393 1.964 1.964.393.393 1.964 1.522 1.522 2.21.442.498 2.265 2.154 2.154 5.657-1.414-21.76-21.759-3.535 3.536zm7.071-7.072-1.414 1.414 21.465 21.464.471-2.357-20.522-20.521zm-2.122 2.122-.707.707 21.921 21.92a.49.49 0 0 1 .135.295l.411-.103.178-.889c-.005-.005-.012-.006-.016-.011L48.865 46.457z"></path></svg>