<svg xmlns="http://www.w3.org/2000/svg" enable-background="new 0 0 64 64" viewBox="0 0 64 64" id="password-key-setting"><path fill="#344a5c" d="M5.61,37.75c-0.2,0-0.38-0.08-0.52-0.22l-4.87-4.92c-0.28-0.28-0.29-0.75,0-1.03l4.86-4.94
				c0.14-0.14,0.33-0.22,0.52-0.22l27.3-0.05h0c0.4,0,0.73,0.33,0.73,0.73c0,0.41-0.33,0.73-0.73,0.73l-27,0.05l-4.14,4.21
				l4.15,4.19l2.98-0.01l2.54-4.23c0.12-0.2,0.35-0.36,0.59-0.38c0.23-0.01,0.48,0.06,0.63,0.24c0.02,0.03,0.08,0.11,0.1,0.14
				l2.46,4.21l2.92-0.01l1.42-1.87c0.14-0.18,0.35-0.29,0.58-0.29l4.23-0.01c0.22,0,0.44,0.1,0.58,0.28l1.48,1.88l6.48-0.01h0
				c0.4,0,0.73,0.33,0.73,0.73c0,0.4-0.33,0.73-0.73,0.73l-6.84,0.01h0c-0.22,0-0.44-0.1-0.58-0.28l-1.48-1.88l-3.51,0.01
				l-1.42,1.87c-0.14,0.18-0.35,0.29-0.58,0.29l-3.7,0.01c-0.22,0.02-0.5-0.14-0.63-0.36l-2.08-3.56l-2.15,3.58
				c-0.13,0.22-0.37,0.35-0.63,0.36L5.61,37.75C5.61,37.75,5.61,37.75,5.61,37.75z"></path><path fill="#344a5c" d="M2.64,30.9c-0.4,0-0.73-0.33-0.73-0.73c0-0.4,0.33-0.73,0.73-0.73l30.27-0.07c0,0,0,0,0,0
				c0.4,0,0.73,0.33,0.73,0.73c0,0.4-0.33,0.73-0.73,0.73L2.64,30.9C2.64,30.9,2.64,30.9,2.64,30.9z"></path><path fill="#344a5c" d="M33.26,39.83c-0.59,0-1.07-0.48-1.07-1.07l-0.03-13.47c0-0.59,0.48-1.07,1.07-1.07l4.04-0.01c0,0,0,0,0,0
			c0.4,0,0.73,0.33,0.73,0.73c0,0.41-0.33,0.73-0.73,0.73l-3.65,0.01l0.03,12.68l3.63-0.01c0,0,0,0,0,0c0.4,0,0.73,0.33,0.73,0.73
			c0,0.41-0.33,0.73-0.73,0.73L33.26,39.83z M33.24,25.69L33.24,25.69C33.23,25.69,33.23,25.69,33.24,25.69z"></path><path fill="#344a5c" d="M49.31,46.69c-8.08,0-14.67-6.57-14.69-14.66c-0.01-3.92,1.51-7.61,4.28-10.39s6.45-4.31,10.38-4.32
			c0.01,0,0.02,0,0.03,0c8.09,0,14.67,6.57,14.69,14.66c0.02,8.1-6.56,14.7-14.66,14.72C49.33,46.69,49.32,46.69,49.31,46.69z
			 M49.31,18.78c-0.01,0-0.02,0-0.03,0c-3.53,0.01-6.85,1.39-9.34,3.89c-2.49,2.5-3.86,5.83-3.85,9.36
			c0.01,7.28,5.94,13.2,13.22,13.2c0.01,0,0.02,0,0.03,0c7.29-0.01,13.21-5.96,13.2-13.25C62.52,24.69,56.59,18.78,49.31,18.78z"></path><path fill="#f5b54e" d="M51.33 24.4c-.38 0-.7-.29-.73-.67l-.16-1.92h-2.25l-.16 1.92c-.03.4-.39.7-.79.67-.4-.03-.7-.39-.67-.79l.21-2.59c.03-.38.35-.67.73-.67h3.6c.38 0 .7.29.73.67l.21 2.59c.03.4-.27.76-.67.79C51.37 24.4 51.35 24.4 51.33 24.4zM51.11 43.65h-3.6c-.38 0-.7-.29-.73-.67l-.21-2.59c-.03-.4.27-.76.67-.79.4-.02.76.27.79.67l.16 1.92h2.25l.16-1.92c.03-.4.4-.7.79-.67.4.03.7.39.67.79l-.21 2.59C51.81 43.36 51.5 43.65 51.11 43.65zM40.76 39.75c-.25 0-.5-.13-.63-.37l-1.8-3.12c-.19-.33-.1-.75.22-.97l2.13-1.48c.34-.23.79-.15 1.02.19.23.33.15.79-.19 1.02l-1.58 1.09 1.12 1.95 1.74-.82c.37-.17.8-.02.98.35.17.37.02.8-.35.98l-2.35 1.11C40.97 39.73 40.86 39.75 40.76 39.75zM57.87 39.75c-.11 0-.21-.02-.31-.07l-2.35-1.11c-.37-.17-.52-.61-.35-.98.17-.36.61-.52.98-.35l1.74.82 1.12-1.95-1.58-1.09c-.33-.23-.42-.69-.19-1.02.23-.33.68-.42 1.02-.19l2.13 1.48c.31.22.41.64.22.97l-1.8 3.12C58.37 39.62 58.12 39.75 57.87 39.75zM41.09 30.31c-.14 0-.29-.04-.42-.13l-2.13-1.48c-.31-.22-.41-.64-.22-.97l1.8-3.12c.19-.33.6-.46.95-.3l2.35 1.11c.37.17.52.61.35.98-.17.37-.61.52-.98.35l-1.74-.82-1.12 1.95 1.58 1.1c.33.23.42.69.18 1.02C41.55 30.2 41.32 30.31 41.09 30.31zM57.53 30.31c-.23 0-.46-.11-.6-.31-.23-.33-.15-.79.18-1.02l1.58-1.1-1.12-1.95-1.74.82c-.37.17-.8.02-.98-.35-.17-.37-.02-.8.35-.98l2.35-1.11c.34-.16.76-.04.95.3l1.8 3.12c.19.33.1.75-.22.97l-2.13 1.48C57.82 30.27 57.68 30.31 57.53 30.31z"></path><path fill="#f5b54e" d="M47.3 41.06c-.06 0-.11-.01-.17-.02-1.74-.42-3.31-1.33-4.55-2.63-.28-.29-.27-.76.03-1.04.29-.28.76-.27 1.04.03 1.04 1.1 2.36 1.86 3.83 2.21.39.09.64.49.54.88C47.93 40.84 47.63 41.06 47.3 41.06zM43.11 26.83c-.18 0-.36-.07-.5-.2-.29-.28-.31-.74-.03-1.04 1.23-1.3 2.81-2.21 4.55-2.63.39-.1.79.15.88.54.09.39-.15.79-.54.88-1.46.35-2.79 1.12-3.83 2.21C43.5 26.75 43.3 26.83 43.11 26.83zM57.53 35.16c-.07 0-.14-.01-.21-.03-.39-.11-.61-.52-.5-.91.21-.72.32-1.47.32-2.22 0-.75-.11-1.49-.32-2.22-.11-.39.11-.8.5-.91.39-.12.79.11.91.5.25.86.38 1.74.38 2.63 0 .89-.13 1.77-.38 2.63C58.14 34.95 57.85 35.16 57.53 35.16zM51.33 41.06c-.33 0-.63-.23-.71-.56-.09-.39.15-.79.54-.88 1.46-.35 2.79-1.12 3.83-2.21.28-.29.74-.31 1.04-.03.29.28.31.74.03 1.04-1.24 1.31-2.81 2.22-4.55 2.63C51.44 41.06 51.38 41.06 51.33 41.06zM55.51 26.83c-.19 0-.39-.08-.53-.23-1.04-1.1-2.37-1.86-3.83-2.21-.39-.09-.64-.49-.54-.88.09-.39.5-.63.88-.54 1.74.42 3.31 1.33 4.55 2.63.28.29.27.76-.03 1.04C55.88 26.76 55.7 26.83 55.51 26.83zM41.09 35.16c-.32 0-.61-.21-.7-.53-.25-.85-.38-1.74-.38-2.63 0-.89.13-1.77.38-2.63.11-.39.51-.61.91-.5.39.11.61.52.5.91-.21.72-.32 1.47-.32 2.22 0 .75.11 1.5.32 2.22.11.39-.11.8-.5.91C41.23 35.15 41.16 35.16 41.09 35.16zM49.31 37.95c-3.28 0-5.95-2.67-5.95-5.95 0-3.28 2.67-5.95 5.95-5.95 3.28 0 5.95 2.67 5.95 5.95C55.26 35.28 52.59 37.95 49.31 37.95zM49.31 27.52c-2.47 0-4.48 2.01-4.48 4.48 0 2.47 2.01 4.48 4.48 4.48 2.47 0 4.48-2.01 4.48-4.48C53.8 29.53 51.78 27.52 49.31 27.52z"></path></svg>