<?xml version="1.0" encoding="iso-8859-1"?>
<!-- Generator: Adobe Illustrator 22.0.1, SVG Export Plug-In . SVG Version: 6.00 Build 0)  -->
<svg version="1.1" id="Layer_1" xmlns="http://www.w3.org/2000/svg" xmlns:xlink="http://www.w3.org/1999/xlink" x="0px" y="0px"
	 viewBox="0 0 2048 2048" style="enable-background:new 0 0 2048 2048;" xml:space="preserve">
<g>
	<path style="fill:#CFD8DD;" d="M1303.413,1025.017V663.449c0-153.889-125.904-281.803-279.793-281.597
		c-153.895,0.206-279.033,125.47-279.033,279.412v82.191c0,34.753-28.173,62.926-62.926,62.926h0
		c-34.753,0-62.926-28.173-62.926-62.926v-82.191c0-54.682,10.724-107.763,31.873-157.766c20.415-48.266,49.627-91.6,86.825-128.799
		c37.2-37.199,80.534-66.411,128.799-86.825C916.236,266.724,969.316,256,1023.999,256c54.683,0,107.763,10.724,157.767,31.874
		c48.265,20.414,91.6,49.627,128.799,86.825c37.198,37.198,66.41,80.532,86.826,128.799c21.15,50.003,31.874,103.082,31.874,157.766
		v363.752H1303.413z"/>
	<path style="fill:#F7E07F;" d="M1553.511,1792H494.489c-22.091,0-40-17.909-40-40V961.791c0-22.091,17.909-40,40-40h1059.022
		c22.091,0,40,17.909,40,40V1752C1593.511,1774.091,1575.603,1792,1553.511,1792z"/>
	<g>
		<path style="fill:#E65A65;" d="M1224.778,1132.218c4.105,4.015,10.689,3.942,14.703-0.163c4.015-4.105,3.942-10.689-0.163-14.703
			c-0.606-0.593-209.033-209.031-428.262-1.071c-4.149,3.948-4.313,10.513-0.365,14.663c3.948,4.149,10.513,4.313,14.663,0.365
			C1029.868,937.308,1224.213,1131.665,1224.778,1132.218z"/>
		<path style="fill:#E65A65;" d="M1076.205,1118.049c5.563,1.346,11.165-2.073,12.51-7.636c1.346-5.563-2.073-11.165-7.636-12.51
			c-0.737-0.179-256.614-65.838-303.122,234.019c-0.875,5.653,2.999,10.946,8.651,11.82c5.653,0.875,10.946-2.999,11.82-8.651
			C841.44,1057.784,1075.531,1117.885,1076.205,1118.049z"/>
		<path style="fill:#E65A65;" d="M1133.303,1116.626c-5.428-1.817-11.303,1.111-13.119,6.54c-1.817,5.428,1.111,11.303,6.54,13.119
			c0.313,0.105,109.005,35.258,122.691,194.736c0.471,5.72,5.49,9.975,11.211,9.505c5.72-0.471,9.975-5.491,9.505-11.211
			C1255.268,1156.128,1133.653,1116.745,1133.303,1116.626z"/>
		<path style="fill:#E65A65;" d="M1236.576,1475.004c4.397,3.679,10.944,3.097,14.623-1.3c3.679-4.397,3.097-10.944-1.3-14.623
			c-11.398-9.537-20.098-30.189-26.73-54.157c-6.934-25.06-11.431-53.675-14.412-77.613c-5.358-43.024-22.732-82.916-48.698-114.078
			c-18.691-22.431-41.802-40.338-68.073-51.663c-26.422-11.39-55.996-16.159-87.451-12.242
			c-38.413,4.785-79.563,22.55-121.039,57.111c-4.397,3.656-4.997,10.185-1.341,14.582c3.656,4.397,10.185,4.997,14.582,1.341
			c38.146-31.787,75.612-48.078,110.316-52.401c27.65-3.443,53.594,0.727,76.728,10.699c23.286,10.038,43.776,25.918,60.355,45.814
			c23.425,28.113,39.118,64.252,43.987,103.355c3.057,24.553,7.725,54.102,15.062,80.618
			C1210.824,1438.055,1221.506,1462.395,1236.576,1475.004z"/>
		<path style="fill:#E65A65;" d="M1198.248,1547.384c4.397,3.679,10.944,3.097,14.623-1.3c3.679-4.397,3.097-10.944-1.3-14.623
			c-10.843-9.072-23.192-37.623-33.999-72.314c-12.495-40.111-22.401-87.674-25.501-123.493l0.002-0.003
			c-0.047-0.545-0.136-1.076-0.262-1.591c-6.551-38.928-20.698-67.921-39.056-88.469c-15.422-17.262-33.773-28.515-53.111-34.665
			c-19.274-6.13-39.446-7.16-58.61-4c-24.176,3.987-46.885,14.663-64.276,30.201c-30.836,27.551-34.605,61.356-38.644,97.588
			c-0.324,2.909-0.654,5.861-1.215,10.57c-1.403,11.776-2.837,25.475-4.275,39.233c-6.469,61.86-13.069,124.962-39.41,183.135
			c-2.355,5.226-0.027,11.373,5.199,13.728c5.226,2.355,11.373,0.027,13.728-5.199c27.687-61.145,34.468-125.986,41.116-189.552
			c1.3-12.432,2.595-24.814,4.275-38.908c0.29-2.432,0.753-6.587,1.215-10.732c3.586-32.174,6.933-62.192,31.82-84.429
			c14.455-12.915,33.461-21.81,53.796-25.164c16.13-2.66,33.012-1.824,49.024,3.268c15.948,5.072,31.121,14.397,43.932,28.735
			c15.885,17.78,28.201,43.336,34.044,78.143c3.223,37.114,13.47,86.314,26.385,127.777
			C1169.619,1503.422,1184.133,1535.574,1198.248,1547.384z"/>
		<path style="fill:#E65A65;" d="M1167.585,1590.986c3.634,4.441,10.181,5.096,14.622,1.462c4.441-3.634,5.096-10.181,1.462-14.622
			c-7.729-9.442-24.185-34.364-40.611-65.252c-11.526-21.675-22.902-46.008-31.034-69.549c-7.443-21.545-9.59-37.505-11.968-55.192
			c-1.295-9.628-2.655-19.745-4.867-31.27c-2.937-15.307-6.499-28.329-10.565-39.305c-4.435-11.968-9.549-21.672-15.181-29.39
			c-9.691-13.281-23.138-21.234-37.458-23.885c-11.226-2.079-22.968-0.876-33.829,3.592c-10.779,4.434-20.657,12.054-28.243,22.831
			c-10.87,15.443-17.031,37.366-14.147,65.568c4.369,42.716,21.608,100.026,42.286,154.101
			c25.683,67.165,56.973,129.978,75.568,153.794c3.522,4.509,10.032,5.308,14.541,1.787s5.309-10.032,1.787-14.541
			c-17.444-22.342-47.431-82.925-72.481-148.432c-20.149-52.693-36.91-108.162-41.068-148.821
			c-2.322-22.707,2.276-39.844,10.491-51.515c5.226-7.424,11.916-12.627,19.145-15.601c7.148-2.94,14.858-3.736,22.213-2.374
			c9.307,1.723,18.085,6.942,24.46,15.68c4.455,6.106,8.63,14.13,12.418,24.354c3.704,9.996,6.963,21.938,9.672,36.055
			c2.178,11.354,3.473,20.976,4.704,30.133c2.512,18.683,4.779,35.541,12.943,59.172c8.653,25.047,20.431,50.325,32.252,72.555
			C1141.79,1554.46,1159.253,1580.809,1167.585,1590.986z"/>
		<path style="fill:#E65A65;" d="M870.153,1276.219c2.333-5.226-0.013-11.355-5.239-13.688c-5.226-2.333-11.355,0.013-13.688,5.239
			c-15.256,34.18-18.306,80.15-21.266,124.765c-2.871,43.275-5.654,85.215-19.296,110.255c-2.737,5.025-0.882,11.317,4.143,14.054
			c5.025,2.737,11.317,0.882,14.054-4.143c15.859-29.11,18.79-73.285,21.814-118.866
			C853.514,1351.039,856.44,1306.942,870.153,1276.219z"/>
		<path style="fill:#E65A65;" d="M1034.839,1332.628c-0.291-5.72-5.166-10.121-10.886-9.83c-5.72,0.291-10.121,5.166-9.83,10.886
			c2.716,52.689,13.729,111.816,35.275,168.595c18.565,48.923,44.936,96.15,80.539,136.132c3.813,4.285,10.379,4.666,14.663,0.853
			c4.285-3.813,4.666-10.379,0.853-14.663c-33.835-37.997-58.936-82.98-76.639-129.633
			C1048.061,1440.276,1037.453,1383.346,1034.839,1332.628z"/>
		<path style="fill:#E65A65;" d="M1014.413,1685.212c3.207,4.755,9.664,6.01,14.42,2.803c4.755-3.208,6.01-9.664,2.803-14.42
			c-19.42-28.748-34.452-57.701-47.148-86.628c-12.829-29.23-23.336-58.522-33.557-87.563l0.019-0.04
			c-1.906-5.417-7.843-8.262-13.26-6.356c-3.754,1.321-6.273,4.579-6.831,8.257l-1.571,7.403
			c-8.32,39.296-15.922,75.199-38.674,115.826c-2.804,5.002-1.021,11.331,3.981,14.135c5.002,2.804,11.331,1.021,14.135-3.981
			c18.769-33.516,27.76-63.459,34.876-94.221c6.708,18.221,13.835,36.512,21.873,54.824
			C978.691,1625.358,994.302,1655.44,1014.413,1685.212z"/>
	</g>
</g>
</svg>
