<svg xmlns="http://www.w3.org/2000/svg" viewBox="0 0 48 48"><defs><style>.cls-1{fill:#42a5f5;}.cls-2{fill:#424242;}</style></defs><title>Key Access</title><g id="Key_Access" data-name="Key Access"><path class="cls-1" d="M28,26.76V3L24,0,20,3l2,2L20,7l2,2-2,2,2,2-2,2,2,2-2,2,2,2-2,2v3.76a11,11,0,1,0,8,0ZM24,45a3,3,0,1,1,3-3A3,3,0,0,1,24,45Z"/><path class="cls-2" d="M42.18,9C39,9,40,8.62,37.59,11H30v2c8.58,0,8.28.12,8.71-.29L40.41,11h1.77a3,3,0,1,0,0-2ZM45,11a1,1,0,0,1,0-2A1,1,0,0,1,45,11Z"/><path class="cls-2" d="M38.18,2H36c-.57,0-.4,0-4.41,4H30V8c2.2,0,2.32.08,2.71-.29L36.41,4h1.77a3,3,0,1,0,0-2ZM41,4a1,1,0,0,1,0-2A1,1,0,0,1,41,4Z"/><path class="cls-2" d="M40.18,24H38.41c-2.85-2.86-2.84-3-3.41-3H30v2h4.59l2.7,2.71c.41.38.61.29,2.89.29a3,3,0,1,0,0-2ZM43,26a1,1,0,0,1,0-2A1,1,0,0,1,43,26Z"/><path class="cls-2" d="M38.18,16H30v2h8.18a3,3,0,1,0,0-2ZM41,18a1,1,0,0,1,0-2A1,1,0,0,1,41,18Z"/><path class="cls-2" d="M16.41,6c-4-4-3.84-4-4.41-4H9.82a3,3,0,1,0,0,2h1.77c4,4,3.84,4,4.41,4h2V6ZM7,4A1,1,0,0,1,7,2,1,1,0,0,1,7,4Z"/><path class="cls-2" d="M10.41,11C8,8.61,8.93,9,5.82,9a3,3,0,1,0,0,2H7.59c1.79,1.8,1.86,2,2.41,2h8V11ZM3,11A1,1,0,0,1,3,9,1,1,0,0,1,3,11Z"/><path class="cls-2" d="M13,21c-.56,0-.52.1-3.41,3H7.82a3,3,0,1,0,0,2H10c.56,0,.52-.1,3.41-3H18V21ZM5,26a1,1,0,0,1,0-2A1,1,0,0,1,5,26Z"/><path class="cls-2" d="M9.82,16a3,3,0,1,0,0,2H18V16ZM7,18a1,1,0,0,1,0-2A1,1,0,0,1,7,18Z"/></g></svg>