<svg xmlns="http://www.w3.org/2000/svg" viewBox="0 0 64 64"><title>Artboard-27</title><g id="Locked"><path d="M32,36A10,10,0,1,0,42,46,10.011,10.011,0,0,0,32,36Zm1.5,16H33v1a1,1,0,0,1-2,0V52H29a1,1,0,0,1,0-2h2V47h-.5a3.5,3.5,0,0,1,0-7H31V39a1,1,0,0,1,2,0v1h2a1,1,0,0,1,0,2H33v3h.5a3.5,3.5,0,0,1,0,7Z" style="fill:#232328"/><path d="M33.5,47H33v3h.5a1.5,1.5,0,0,0,0-3Z" style="fill:#232328"/><path d="M29,43.5A1.5,1.5,0,0,0,30.5,45H31V42h-.5A1.5,1.5,0,0,0,29,43.5Z" style="fill:#232328"/><path d="M46,28H18a5.006,5.006,0,0,0-5,5V59a5.006,5.006,0,0,0,5,5H46a5.006,5.006,0,0,0,5-5V33A5.006,5.006,0,0,0,46,28ZM18,60a1,1,0,1,1,1-1A1,1,0,0,1,18,60Zm0-26a1,1,0,1,1,1-1A1,1,0,0,1,18,34ZM32,58A12,12,0,1,1,44,46,12.013,12.013,0,0,1,32,58Zm14,2a1,1,0,1,1,1-1A1,1,0,0,1,46,60Zm0-26a1,1,0,1,1,1-1A1,1,0,0,1,46,34Z" style="fill:#232328"/><path d="M29,26V23a1,1,0,0,0-1-1H18a1,1,0,0,0-1,1v3.08A5.546,5.546,0,0,1,18,26Z" style="fill:#232328"/><path d="M35,23v3H46a5.546,5.546,0,0,1,1,.08V23a1,1,0,0,0-1-1H36A1,1,0,0,0,35,23Z" style="fill:#232328"/><path d="M27,13a5,5,0,0,1,10,0v7h8V13a13,13,0,0,0-26,0v7h8Z" style="fill:#232328"/></g></svg>