<?xml version="1.0" encoding="iso-8859-1"?>
<!-- Generator: Adobe Illustrator 22.0.1, SVG Export Plug-In . SVG Version: 6.00 Build 0)  -->
<svg version="1.1" id="Layer_1" xmlns="http://www.w3.org/2000/svg" xmlns:xlink="http://www.w3.org/1999/xlink" x="0px" y="0px"
	 viewBox="0 0 2048 2048" style="enable-background:new 0 0 2048 2048;" xml:space="preserve">
<g>
	<path style="fill:#CFD8DD;" d="M1792,1106.296V943.383l-148.883-4.285c-15.292-108.094-58.262-207.286-121.508-290.18
		l103.64-109.783l-115.197-115.197L1399.84,527.983c-82.811-62.285-181.612-104.45-289.148-119.237L1106.296,256H943.383
		l-4.397,152.746c-107.352,14.761-205.999,56.805-288.723,118.915L539.134,422.75L423.937,537.947l104.412,110.601
		c-63.06,82.525-106.006,181.235-121.534,288.816L256,941.704v162.913l149.656,4.308c14.173,108.642,56.262,208.51,118.845,292.16
		l-101.75,107.781l115.197,115.197l107.016-101.028c83.417,64.025,183.458,107.468,292.532,122.734L941.704,1792h162.913
		l4.196-145.78c109.389-14.703,209.8-57.724,293.618-121.449l106.435,100.479l115.197-115.197l-100.659-106.625
		c63.241-83.708,105.884-183.84,120.4-292.867L1792,1106.296z"/>
	<g>
		<circle style="fill:#BBECFF;" cx="1024.839" cy="1027.357" r="509.062"/>
		<g>
			<g>
				<g>
					<path style="fill:#72B8CE;" d="M1024.839,1561.194c-72.056,0-141.971-14.118-207.801-41.962
						c-63.572-26.888-120.66-65.377-169.678-114.395c-49.018-49.018-87.507-106.107-114.395-169.678
						c-27.844-65.83-41.962-135.744-41.962-207.8c0-72.057,14.118-141.971,41.962-207.801
						c26.889-63.572,65.377-120.66,114.395-169.679c49.019-49.019,106.107-87.507,169.678-114.396
						c65.83-27.844,135.744-41.962,207.801-41.962c72.057,0,141.971,14.118,207.801,41.962
						c63.572,26.889,120.66,65.377,169.678,114.396c49.018,49.019,87.507,106.107,114.395,169.679
						c27.844,65.83,41.962,135.744,41.962,207.801c0,72.056-14.118,141.971-41.962,207.8
						c-26.888,63.572-65.377,120.66-114.395,169.678c-49.018,49.018-106.107,87.507-169.678,114.395
						C1166.81,1547.076,1096.896,1561.194,1024.839,1561.194z M1024.839,543.069c-267.037,0-484.288,217.251-484.288,484.289
						c0,267.037,217.251,484.287,484.288,484.287c267.037,0,484.288-217.25,484.288-484.287
						C1509.127,760.32,1291.876,543.069,1024.839,543.069z"/>
				</g>
			</g>
			<g>
				<g>
					<path style="fill:#72B8CE;" d="M1024.839,1561.092c-77.303,0-148.543-57.832-200.598-162.842
						c-49.315-99.483-76.474-231.202-76.474-370.892c0-139.691,27.159-271.41,76.474-370.893
						c52.055-105.011,123.295-162.842,200.598-162.842s148.544,57.832,200.598,162.842c49.316,99.483,76.475,231.202,76.475,370.893
						c0,139.69-27.159,271.409-76.475,370.892C1173.383,1503.26,1102.142,1561.092,1024.839,1561.092z M1024.839,543.171
						c-28,0-55.631,11.462-82.126,34.069c-27.481,23.448-52.405,57.508-74.08,101.232c-45.991,92.777-71.319,216.68-71.319,348.887
						c0,132.206,25.328,256.109,71.319,348.886c21.674,43.724,46.599,77.782,74.08,101.231
						c26.495,22.606,54.126,34.068,82.126,34.068c28,0,55.63-11.463,82.125-34.068c27.481-23.449,52.405-57.507,74.08-101.231
						c45.991-92.777,71.32-216.68,71.32-348.886c0-132.206-25.329-256.11-71.32-348.887c-21.674-43.724-46.599-77.784-74.08-101.232
						C1080.47,554.633,1052.839,543.171,1024.839,543.171z"/>
				</g>
			</g>
			<g>
				<g>
					<g>
						<path style="fill:#72B8CE;" d="M1456.096,781.534H593.583c-13.682,0-24.774-11.092-24.774-24.774
							c0-13.682,11.092-24.774,24.774-24.774h862.513c13.682,0,24.774,11.092,24.774,24.774
							C1480.87,770.443,1469.778,781.534,1456.096,781.534z"/>
					</g>
					<g>
						<path style="fill:#72B8CE;" d="M1456.096,1322.729H593.583c-13.682,0-24.774-11.092-24.774-24.774
							c0-13.682,11.092-24.774,24.774-24.774h862.513c13.682,0,24.774,11.092,24.774,24.774
							C1480.87,1311.637,1469.778,1322.729,1456.096,1322.729z"/>
					</g>
				</g>
			</g>
			<g>
				<g>
					<path style="fill:#72B8CE;" d="M1533.901,1052.132H515.777c-13.682,0-24.774-11.092-24.774-24.774
						c0-13.682,11.092-24.774,24.774-24.774h1018.124c13.682,0,24.774,11.092,24.774,24.774
						C1558.675,1041.04,1547.584,1052.132,1533.901,1052.132z"/>
				</g>
			</g>
			<g>
				<g>
					<path style="fill:#72B8CE;" d="M1024.839,1561.144c-13.682,0-24.774-11.042-24.774-24.725V518.393
						c0-13.682,11.092-24.823,24.774-24.823c13.683,0,24.774,11.042,24.774,24.725v1018.027
						C1049.613,1550.004,1038.522,1561.144,1024.839,1561.144z"/>
				</g>
			</g>
		</g>
	</g>
</g>
</svg>
