<svg xmlns="http://www.w3.org/2000/svg" enable-background="new 0 0 92 92" viewBox="0 0 92 92" id="cryptography"><path fill="#FDF1D7" d="M91.00006 37.33704c0 4.23999-3.44019 7.67004-7.67017 7.67004H53.27985c-4.23975 0-7.67993-3.43005-7.67993-7.67004s3.44019-7.67993 7.67993-7.67993H83.3299C87.55988 29.6571 91.00006 33.09705 91.00006 37.33704zM24.16998 45.00708h-15.5c-4.22998 0-7.66992-3.43005-7.66992-7.67004S4.44 29.6571 8.66998 29.6571h15.5c4.22998 0 7.66992 3.43994 7.66992 7.67993S28.39996 45.00708 24.16998 45.00708zM70.42999 62.39709c0 4.23999-3.44019 7.67993-7.67993 7.67993H24.0899c-4.22998 0-7.66992-3.43994-7.66992-7.67993 0-4.22998 3.43994-7.67004 7.66992-7.67004h38.66016C66.98981 54.72705 70.42999 58.16711 70.42999 62.39709z"></path><polyline fill="#FFF" points="19.173 34.74 19.173 57.872 21.583 62.126 41.657 73.712 47.369 73.712 67.331 62.187 67.341 62.187 69.853 57.447 69.853 34.74 67.321 30.01 47.146 18.363 41.88 18.363 21.705 30.01"></polyline><circle cx="77.142" cy="18.726" r="1.496" fill="#D2EADE"></circle><circle cx="15.636" cy="18.055" r="3.065" fill="#D2EADE"></circle><circle cx="74.744" cy="77.586" r="1.612" fill="#DEEAF7"></circle><circle cx="8.312" cy="61.779" r="3.455" fill="#F5E1ED"></circle><circle cx="44.334" cy="45.802" r="18.165" fill="#FCBD5B"></circle><circle cx="44.334" cy="45.802" r="13.324" fill="#FFF"></circle><path fill="#FCBD5B" d="M51.30206,39.18567c-1.46436-1.46387-4.01758-1.46387-5.48193,0
			c-1.337,1.33656-1.49055,3.39748-0.47852,4.8999l-4.84985,4.84961l-0.67627-0.67627c-0.29297-0.29297-0.76758-0.29297-1.06055,0
			s-0.29297,0.76758,0,1.06055l0.67627,0.67627l-0.70093,0.70093l-1.21899-1.21899c-0.29297-0.29297-0.76758-0.29297-1.06055,0
			s-0.29297,0.76758,0,1.06055l1.21899,1.21899l-0.51685,0.51685c-0.29297,0.29297-0.29297,0.76758,0,1.06055
			c0.29296,0.29296,0.76757,0.29298,1.06055,0c2.40677-2.40666,7.42877-7.42844,8.18896-8.1886
			c1.50034,1.01073,3.56086,0.85995,4.89966-0.47839C52.81686,43.1523,52.81749,40.7006,51.30206,39.18567z M50.24152,43.60706
			c-0.89795,0.89746-2.46289,0.89746-3.36084,0c-0.92838-0.92939-0.92909-2.43175,0-3.36084
			c0.92884-0.92833,2.43175-0.92859,3.36084,0C51.17043,41.17513,51.1701,42.67746,50.24152,43.60706z"></path><path d="M70.85309,56.58447V35.60034c1.7417-0.44812,3.03809-2.01819,3.03809-3.89807c0-2.22705-1.81152-4.03857-4.03833-4.03857
			c-1.05396,0-2.00659,0.41516-2.72681,1.07886L48.38409,17.92261c0.09717-0.34656,0.16577-0.70459,0.16577-1.08167
			c0-2.22705-1.81152-4.03857-4.03833-4.03857s-4.03857,1.81152-4.03857,4.03857c0,0.37769,0.06885,0.73621,0.16626,1.08325
			L21.89801,28.74353c-0.72021-0.66431-1.67334-1.07983-2.72803-1.07983c-2.22681,0-4.03833,1.81152-4.03833,4.03857
			c0,1.88086,1.29785,3.4519,3.04101,3.89893v21.30969c-1.92017,0.31067-3.39526,1.96667-3.39526,3.97351
			c0,2.22656,1.81152,4.03809,4.03833,4.03809c1.24194,0,2.34058-0.57544,3.08203-1.45996l18.63062,10.75342
			c-0.0249,0.18091-0.05542,0.36035-0.05542,0.54785c0,2.22705,1.81152,4.03857,4.03833,4.03857s4.03857-1.81152,4.03857-4.03857
			c0-0.18701-0.03052-0.36597-0.05518-0.54639l18.64429-10.76489c0.71851,0.65686,1.66577,1.06812,2.71387,1.06812
			c2.22681,0,4.03833-1.81152,4.03833-4.03809C73.89117,58.60266,72.59479,57.03259,70.85309,56.58447z M66.75323,57.92517
			l-5.35522-3.44141c1.33325-2.60986,2.10107-5.55493,2.10107-8.6814c0-2.87305-0.65356-5.59033-1.79126-8.03906l5.20898-3.30554
			c0.5166,0.55017,1.18335,0.9491,1.93628,1.1427v20.98389C68.01471,56.79993,67.28912,57.27698,66.75323,57.92517z
			 M44.33429,62.96741c-9.46484,0-17.16504-7.7002-17.16504-17.16504s7.7002-17.16504,17.16504-17.16504
			c9.4646,0,17.16479,7.7002,17.16479,17.16504S53.79889,62.96741,44.33429,62.96741z M20.17267,57.09729V35.59961
			c0.74756-0.19299,1.41089-0.58752,1.92554-1.13245l4.92651,3.16296c-1.17725,2.48303-1.85547,5.24658-1.85547,8.17224
			c0,3.21216,0.80347,6.23682,2.20581,8.89868l-5.54907,3.51782C21.38043,57.71619,20.81696,57.32898,20.17267,57.09729z
			 M69.85284,29.6637c1.12402,0,2.03833,0.91455,2.03833,2.03857c0,1.1228-0.9126,2.03638-2.03491,2.03821
			c-0.00122,0-0.0022-0.00061-0.00317-0.00061c-0.00122,0-0.0022,0.00073-0.00342,0.00073
			c-1.12256-0.00171-2.0354-0.91528-2.0354-2.03833C67.81427,30.57825,68.72882,29.6637,69.85284,29.6637z M66.04059,30.42566
			c-0.13574,0.40356-0.22632,0.82788-0.22632,1.27661c0,0.52808,0.1084,1.02954,0.29346,1.49231l-5.08081,3.22412
			c-3.14648-5.57507-8.99951-9.40833-15.76538-9.73438V20.8031c0.82764-0.15637,1.56567-0.56311,2.13257-1.14233L66.04059,30.42566z
			 M44.51154,14.80237c1.12402,0,2.03833,0.91455,2.03833,2.03857s-0.91431,2.03809-2.03833,2.03809
			s-2.03857-0.91406-2.03857-2.03809S43.38751,14.80237,44.51154,14.80237z M43.76154,20.8031v5.86328
			c-6.86353,0.20422-12.82373,4.02344-16.04321,9.62598l-4.80688-3.08618c0.18799-0.46582,0.29712-0.97168,0.29712-1.50391
			c0-0.44824-0.09058-0.87207-0.22607-1.27527l18.64746-10.76501C42.19659,20.2406,42.93439,20.64685,43.76154,20.8031z
			 M17.13165,31.70227c0-1.12402,0.91431-2.03857,2.03833-2.03857s2.03857,0.91455,2.03857,2.03857
			c0,1.12231-0.91187,2.03528-2.03369,2.03809c-0.00073,0-0.00146-0.00049-0.00146-0.00049
			c-0.0022,0-0.00342,0.00085-0.00488,0.00085C18.04523,33.73987,17.13165,32.82581,17.13165,31.70227z M18.81573,62.92249
			c-1.12402,0-2.03833-0.91406-2.03833-2.03809s0.91431-2.03857,2.03833-2.03857s2.03833,0.91455,2.03833,2.03857
			S19.93976,62.92249,18.81573,62.92249z M22.7757,61.65967c0.04907-0.25134,0.07837-0.50989,0.07837-0.77527
			c0-0.48596-0.09985-0.94604-0.25781-1.37793l5.5376-3.51062c3.30127,5.22754,9.04785,8.7467,15.62769,8.9425v5.86316
			c-1.00659,0.19019-1.8728,0.75867-2.4668,1.54724L22.7757,61.65967z M44.51129,76.80237
			c-1.12402,0-2.03833-0.91455-2.03833-2.03857s0.91431-2.03809,2.03833-2.03809s2.03857,0.91406,2.03857,2.03809
			S45.63531,76.80237,44.51129,76.80237z M45.26154,70.80164v-5.88123c6.51587-0.31409,12.17627-3.88501,15.39722-9.12878
			l5.37061,3.45117c-0.12817,0.39307-0.21509,0.80444-0.21509,1.23975c0,0.45435,0.09229,0.88379,0.2312,1.29163L47.72882,72.34973
			C47.13507,71.56079,46.26837,70.99194,45.26154,70.80164z M69.85284,62.52063c-1.12402,0-2.03857-0.91406-2.03857-2.03809
			c0-1.12085,0.90942-2.03235,2.02905-2.0376c0.00342,0,0.00635,0.00195,0.00977,0.00195s0.0061-0.00195,0.00952-0.00195
			c1.11938,0.00549,2.02856,0.91699,2.02856,2.0376C71.89117,61.60657,70.97687,62.52063,69.85284,62.52063z"></path></svg>