<svg xmlns="http://www.w3.org/2000/svg" viewBox="0 0 48 48"><defs><style>.cls-1{fill:#424242;}.cls-2{fill:#42a5f5;}</style></defs><title>password</title><g id="password"><path class="cls-1" d="M38,22V38H36V22a2,2,0,0,0-2-2H14a2,2,0,0,0-2,2V38H10V22a4,4,0,0,1,4-4H34A4,4,0,0,1,38,22Z"/><path class="cls-2" d="M46,38H2a2,2,0,0,0-2,2v6a2,2,0,0,0,2,2H46a2,2,0,0,0,2-2V40A2,2,0,0,0,46,38ZM10.23,43.13A1,1,0,0,1,9.73,45,1.27,1.27,0,0,1,9,44.73V45a1,1,0,0,1-2,0v-.27a1.3,1.3,0,0,1-.73.27,1,1,0,0,1-.5-1.87L6,43l-.23-.13a1,1,0,0,1,1-1.74l.23.14V41a1,1,0,0,1,2,0v.27l.23-.14a1,1,0,0,1,1,1.74L10,43Zm8,0a1,1,0,0,1-.5,1.87,1.27,1.27,0,0,1-.73-.27V45a1,1,0,0,1-2,0v-.27a1.3,1.3,0,0,1-.73.27,1,1,0,0,1-.5-1.87L14,43l-.23-.13a1,1,0,0,1,1-1.74l.23.14V41a1,1,0,0,1,2,0v.27l.23-.14a1,1,0,0,1,1,1.74L18,43Zm8,0a1,1,0,0,1-.5,1.87,1.27,1.27,0,0,1-.73-.27V45a1,1,0,0,1-2,0v-.27a1.3,1.3,0,0,1-.73.27,1,1,0,0,1-.5-1.87L22,43l-.23-.13a1,1,0,0,1,1-1.74l.23.14V41a1,1,0,0,1,2,0v.27l.23-.14a1,1,0,0,1,1,1.74L26,43Zm8,0a1,1,0,0,1-.5,1.87,1.27,1.27,0,0,1-.73-.27V45a1,1,0,0,1-2,0v-.27a1.3,1.3,0,0,1-.73.27,1,1,0,0,1-.5-1.87L30,43l-.23-.13a1,1,0,0,1,1-1.74l.23.14V41a1,1,0,0,1,2,0v.27l.23-.14a1,1,0,0,1,1,1.74L34,43Zm8,0a1,1,0,0,1-.5,1.87,1.27,1.27,0,0,1-.73-.27V45a1,1,0,0,1-2,0v-.27a1.3,1.3,0,0,1-.73.27,1,1,0,0,1-.5-1.87L38,43l-.23-.13a1,1,0,0,1,1-1.74l.23.14V41a1,1,0,0,1,2,0v.27l.23-.14a1,1,0,0,1,1,1.74L42,43Z"/><path class="cls-1" d="M21.29,24.71a1,1,0,0,1,1.42-1.42L24,24.59l1.29-1.3a1,1,0,0,1,1.42,1.42C23.63,27.78,24.38,27.8,21.29,24.71Z"/><path class="cls-1" d="M28,34H25V32h3A1,1,0,0,1,28,34Z"/><path class="cls-1" d="M20,32h3v2H20A1,1,0,0,1,20,32Z"/><path class="cls-1" d="M28,30H25V28h3A1,1,0,0,1,28,30Z"/><path class="cls-1" d="M20,28h3v2H20A1,1,0,0,1,20,28Z"/><path class="cls-2" d="M25,35.82V27h1a1,1,0,0,1,1,1v5A3,3,0,0,1,25,35.82Z"/><path class="cls-2" d="M21,33V28a1,1,0,0,1,1-1h1v8.82A3,3,0,0,1,21,33Z"/><path class="cls-1" d="M24,24a2,2,0,0,1,2,2v1H22V26A2,2,0,0,1,24,24Z"/><path class="cls-2" d="M34,10v8H31V10a7,7,0,0,0-14,0v4H14V10a10,10,0,0,1,20,0Z"/></g></svg>