<?xml version="1.0" encoding="iso-8859-1"?>
<!-- Generator: Adobe Illustrator 22.0.1, SVG Export Plug-In . SVG Version: 6.00 Build 0)  -->
<svg version="1.1" id="Layer_1" xmlns="http://www.w3.org/2000/svg" xmlns:xlink="http://www.w3.org/1999/xlink" x="0px" y="0px"
	 viewBox="0 0 2048 2048" style="enable-background:new 0 0 2048 2048;" xml:space="preserve">
<g>
	<path style="fill:#DBE5EB;" d="M1732,1250.353H316c-33.137,0-60-26.863-60-60V857.647c0-33.137,26.863-60,60-60h1416
		c33.137,0,60,26.863,60,60v332.706C1792,1223.49,1765.137,1250.353,1732,1250.353z"/>
	<g>
		<g>
			<g>
				<path style="fill:#72B8CE;" d="M480.776,1158.009c-13.682,0-24.774-11.092-24.774-24.774V914.766
					c0-13.682,11.092-24.774,24.774-24.774s24.774,11.092,24.774,24.774v218.469C505.55,1146.917,494.459,1158.009,480.776,1158.009
					z"/>
			</g>
			<g>
				<path style="fill:#72B8CE;" d="M383.393,1126.016c-7.303,0-14.537-3.215-19.427-9.381c-8.502-10.721-6.703-26.303,4.018-34.806
					l194.799-154.481c10.72-8.5,26.302-6.703,34.805,4.018c8.501,10.721,6.703,26.303-4.018,34.805l-194.799,154.481
					C394.217,1124.263,388.786,1126.016,383.393,1126.016z"/>
			</g>
			<g>
				<path style="fill:#72B8CE;" d="M578.16,1126.016c-5.394,0-10.824-1.752-15.378-5.364L367.983,966.171
					c-10.721-8.502-12.519-24.084-4.018-34.805c8.502-10.72,24.086-12.519,34.805-4.018L593.57,1081.83
					c10.721,8.502,12.519,24.085,4.018,34.806C592.697,1122.801,585.463,1126.016,578.16,1126.016z"/>
			</g>
		</g>
		<g>
			<g>
				<path style="fill:#72B8CE;" d="M842.925,1158.009c-13.682,0-24.774-11.092-24.774-24.774V914.766
					c0-13.682,11.092-24.774,24.774-24.774c13.682,0,24.774,11.092,24.774,24.774v218.469
					C867.7,1146.917,856.608,1158.009,842.925,1158.009z"/>
			</g>
			<g>
				<path style="fill:#72B8CE;" d="M745.542,1126.016c-7.303,0-14.537-3.215-19.427-9.381c-8.502-10.721-6.703-26.303,4.018-34.806
					l194.799-154.481c10.72-8.5,26.303-6.703,34.805,4.018c8.502,10.721,6.703,26.303-4.018,34.805L760.92,1120.652
					C756.366,1124.263,750.935,1126.016,745.542,1126.016z"/>
			</g>
			<g>
				<path style="fill:#72B8CE;" d="M940.309,1126.016c-5.394,0-10.824-1.752-15.378-5.364L730.133,966.171
					c-10.721-8.502-12.519-24.084-4.018-34.805c8.503-10.72,24.085-12.519,34.805-4.018l194.799,154.481
					c10.721,8.502,12.519,24.085,4.018,34.806C954.846,1122.801,947.612,1126.016,940.309,1126.016z"/>
			</g>
		</g>
		<g>
			<g>
				<path style="fill:#72B8CE;" d="M1205.075,1158.009c-13.682,0-24.774-11.092-24.774-24.774V914.766
					c0-13.682,11.092-24.774,24.774-24.774s24.774,11.092,24.774,24.774v218.469
					C1229.849,1146.917,1218.757,1158.009,1205.075,1158.009z"/>
			</g>
			<g>
				<path style="fill:#72B8CE;" d="M1107.692,1126.016c-7.303,0-14.536-3.215-19.427-9.381c-8.502-10.721-6.703-26.303,4.017-34.806
					l194.798-154.481c10.723-8.501,26.302-6.704,34.806,4.018c8.502,10.72,6.703,26.303-4.017,34.805l-194.798,154.481
					C1118.515,1124.263,1113.085,1126.016,1107.692,1126.016z"/>
			</g>
			<g>
				<path style="fill:#72B8CE;" d="M1302.458,1126.016c-5.393,0-10.824-1.752-15.378-5.364l-194.798-154.481
					c-10.72-8.502-12.519-24.085-4.017-34.805c8.501-10.721,24.084-12.519,34.805-4.018l194.798,154.481
					c10.72,8.502,12.519,24.085,4.017,34.806C1316.995,1122.801,1309.76,1126.016,1302.458,1126.016z"/>
			</g>
		</g>
		<g>
			<g>
				<path style="fill:#72B8CE;" d="M1567.224,1158.009c-13.682,0-24.774-11.092-24.774-24.774V914.766
					c0-13.682,11.092-24.774,24.774-24.774c13.682,0,24.774,11.092,24.774,24.774v218.469
					C1591.998,1146.917,1580.906,1158.009,1567.224,1158.009z"/>
			</g>
			<g>
				<path style="fill:#72B8CE;" d="M1469.841,1126.016c-7.303,0-14.536-3.215-19.427-9.381c-8.502-10.721-6.703-26.303,4.017-34.806
					l194.798-154.481c10.722-8.501,26.302-6.704,34.805,4.018c8.502,10.72,6.703,26.303-4.017,34.805l-194.798,154.481
					C1480.664,1124.263,1475.234,1126.016,1469.841,1126.016z"/>
			</g>
			<g>
				<path style="fill:#72B8CE;" d="M1664.607,1126.016c-5.393,0-10.823-1.752-15.378-5.364L1454.43,966.171
					c-10.72-8.502-12.519-24.085-4.017-34.805c8.502-10.721,24.085-12.519,34.805-4.018l194.798,154.481
					c10.72,8.502,12.519,24.085,4.017,34.806C1679.144,1122.801,1671.909,1126.016,1664.607,1126.016z"/>
			</g>
		</g>
	</g>
</g>
</svg>
