<?xml version="1.0" encoding="iso-8859-1"?>
<!-- Generator: Adobe Illustrator 22.0.1, SVG Export Plug-In . SVG Version: 6.00 Build 0)  -->
<svg version="1.1" id="Layer_1" xmlns="http://www.w3.org/2000/svg" xmlns:xlink="http://www.w3.org/1999/xlink" x="0px" y="0px"
	 viewBox="0 0 2048 2048" style="enable-background:new 0 0 2048 2048;" xml:space="preserve">
<g>
	<path style="fill:#E6C86B;" d="M958.199,1723.603c-4.097-4.258-7.778-8.271-11.337-12.152c-4.521-4.93-8.793-9.587-12.43-13.061
		c-27.128-25.911-63.904-44.661-99.247-61.643c-19.651-9.443-39.519-18.347-60.553-27.774
		c-29.117-13.048-59.224-26.542-89.158-41.772c-70.752-35.995-126.802-77.611-171.352-127.226
		c-38.582-42.969-68.852-91.614-89.97-144.584c-15.136-37.965-25.262-77.188-30.098-116.578c-1.876-15.29-3.687-33.563-2.898-53.203
		l1.269-31.593l20.535-24.043c122.988-144.001,122.988-353.035,0-497.036l-54.818-64.183L610.905,256l64.181,54.816
		c40.339,34.453,91.765,53.425,144.802,53.421c53.055-0.004,104.484-18.976,144.813-53.42l59.301-50.647l59.3,50.647
		c40.334,34.448,91.76,53.42,144.805,53.42c53.047,0,104.475-18.972,144.809-53.421L1437.095,256l252.764,252.753l-54.818,64.183
		c-122.989,144.001-122.989,353.035,0,497.036l20.534,24.042l1.27,31.591c0.79,19.646-1.022,37.921-2.899,53.205
		c-4.834,39.387-14.961,78.61-30.097,116.58c-21.118,52.969-51.387,101.614-89.968,144.583
		c-44.549,49.614-100.599,91.231-171.354,127.227c-29.933,15.229-60.039,28.722-89.155,41.771
		c-21.034,9.427-40.903,18.331-60.553,27.774c-35.344,16.984-72.121,35.733-99.251,61.645c-3.638,3.475-7.908,8.131-12.43,13.061
		c-3.559,3.881-7.239,7.893-11.335,12.151L1024,1792L958.199,1723.603z"/>
	<path style="fill:#F7E07F;" d="M1024,1660.299c8.911-9.263,17.186-19.041,26.5-27.936c35.765-34.161,78.617-56.701,122.77-77.917
		c48.978-23.535,99.404-43.977,147.853-68.626c54.14-27.545,104.035-61.43,144.817-106.849
		c30.98-34.502,55.915-74.308,73.092-117.394c11.994-30.085,20.339-61.73,24.287-93.891c1.556-12.678,2.805-25.623,2.292-38.413
		c-151.414-177.282-151.414-438.354,0-615.637l-133.394-133.389c-117.549,100.396-290.667,100.397-408.215,0.002
		c-117.549,100.396-290.666,100.394-408.215-0.002L482.391,513.636c151.414,177.283,151.414,438.354,0,615.637
		c-0.514,12.79,0.735,25.734,2.292,38.413c3.948,32.161,12.292,63.806,24.287,93.891c17.177,43.085,42.112,82.892,73.092,117.394
		c40.782,45.419,90.677,79.305,144.817,106.849c48.449,24.649,98.875,45.091,147.853,68.626
		c44.152,21.216,87.005,43.756,122.77,77.917C1006.814,1641.258,1015.089,1651.036,1024,1660.299z"/>
	<circle style="fill:#E6C86B;" cx="1024" cy="1011.173" r="271.069"/>
	<polygon style="fill:#F3F6FF;" points="1024,854.394 1066.794,958.763 1179.278,967.21 1093.241,1040.161 1119.967,1149.75 
		1024,1090.467 928.033,1149.75 954.759,1040.161 868.722,967.21 981.207,958.763 	"/>
</g>
</svg>
