<svg xmlns="http://www.w3.org/2000/svg" viewBox="0 0 96 96" id="encrypted-key"><circle cx="48" cy="48" r="48" fill="#f9a21b"></circle><path fill="#fff" d="M40.389 34.151a1.001 1.001 0 0 0-.708 1.707c.391.39 1.024.389 1.415 0a1.004 1.004 0 0 0 0-1.415 1.002 1.002 0 0 0-.707-.292zm-8.132-2.975c-.385 0-.769.146-1.062.439a1.503 1.503 0 0 0 0 2.121 1.503 1.503 0 0 0 2.122 0 1.503 1.503 0 0 0 0-2.121 1.495 1.495 0 0 0-1.06-.439zm3.182 10.339a.997.997 0 0 0 0-1.414 1 1 0 1 0-1.414 1.414c.39.389 1.023.389 1.414 0zm15.548 2.82-1.414 1.414 21.465 21.464.471-2.357-20.522-20.521zm-2.122 2.122-.707.707 21.921 21.92a.49.49 0 0 1 .135.295l.411-.103.178-.889c-.005-.005-.012-.006-.016-.011L48.865 46.457zm1.769-5.303-2.31-2.31c.592-3.646-.49-7.51-3.27-10.34-4.484-4.565-12.018-4.751-16.711-.402-5.02 4.653-5.133 12.499-.337 17.294 2.837 2.837 6.739 3.945 10.418 3.347l2.31 2.31a1 1 0 0 0 1.414 0l8.485-8.485a1 1 0 0 0 .001-1.414zm-8.831-4.589c-.39.39-.902.585-1.415.585a1.987 1.987 0 0 1-1.991-2.082l-3.954-1.203a2.456 2.456 0 0 1-.418.579 2.465 2.465 0 0 1-.58.419l1.203 3.954a1.987 1.987 0 0 1 2.083 1.991c0 .534-.208 1.036-.586 1.414-.39.39-.902.585-1.414.585s-1.024-.195-1.414-.585a1.986 1.986 0 0 1-.586-1.414 1.983 1.983 0 0 1 .959-1.702l-1.203-3.953c-.077.007-.153.022-.231.022a2.496 2.496 0 0 1-1.769-.731 2.502 2.502 0 0 1 0-3.535 2.503 2.503 0 0 1 3.536 0c.546.546.775 1.284.709 1.999l3.953 1.203c.081-.132.173-.259.288-.374a2.003 2.003 0 0 1 2.829 0c.779.779.779 2.048.001 2.828zm2.113 14.842 2.942 2.942 3.634.491.393 3.536 1.571 1.571 1.964.393.393 1.964 1.964.393.393 1.964 1.522 1.522 2.21.442.498 2.265 2.154 2.154 5.657-1.414-21.76-21.759-3.535 3.536z"></path></svg>