<svg xmlns="http://www.w3.org/2000/svg" xmlns:xlink="http://www.w3.org/1999/xlink" width="96" height="96" viewBox="0 0 96 96" id="key"><defs><linearGradient id="b" x1="1073.403" x2="1097.116" y1="516.451" y2="544.308" gradientTransform="translate(-3287.743 -1586.04) scale(3.0757)" gradientUnits="userSpaceOnUse" xlink:href="#a"></linearGradient><linearGradient id="a"><stop offset="0" stop-color="#16ff6a"></stop><stop offset="1" stop-color="#0090a5"></stop></linearGradient></defs><rect width="96" height="96" fill="url(#b)" rx="20.288" ry="20.288"></rect><path fill="#fff" d="m 35.993157,24.000003 c -3.472001,0 -6.736407,1.35064 -9.191407,3.80664 -5.069,5.068 -5.069,13.316766 0,18.384766 2.819,2.819 6.811532,4.182219 10.769531,3.699219 l 2.664063,2.664062 c 0.195,0.195 0.451031,0.292969 0.707031,0.292969 0.256,0 0.512031,-0.09797 0.707032,-0.292969 l 0.707031,-0.707031 3.294922,3.296875 c 0.155,0.155 0.357218,0.253203 0.574218,0.283203 l 2.859375,0.386719 0.306641,2.759765 c 0.025,0.226 0.126109,0.436657 0.287109,0.597657 l 1.570313,1.570312 c 0.14,0.14 0.317719,0.235438 0.511719,0.273438 l 1.310546,0.261719 0.263672,1.310546 c 0.079,0.396 0.388203,0.706157 0.783204,0.785157 l 1.3125,0.261718 0.261718,1.310547 c 0.038,0.194 0.134438,0.370766 0.273438,0.509766 l 1.521484,1.521484 c 0.14,0.14 0.315766,0.235438 0.509766,0.273438 l 1.570312,0.314453 0.357422,1.626953 c 0.041,0.187 0.134531,0.356187 0.269531,0.492188 l 2.154297,2.154296 c 0.189,0.19 0.445032,0.292969 0.707032,0.292969 0.081,0 0.162187,-0.0093 0.242187,-0.0293 l 7.070313,-1.767578 c 0.375,-0.094 0.663281,-0.396391 0.738281,-0.77539 l 0.882812,-4.417969 c 0.066,-0.326 -0.03548,-0.665344 -0.271484,-0.902344 l -20.875,-20.875 0.707031,-0.707031 c 0.188,-0.188 0.292969,-0.442032 0.292969,-0.707032 0,-0.265 -0.104969,-0.520031 -0.292969,-0.707031 l -2.664062,-2.664062 c 0.481,-3.959 -0.882172,-7.953485 -3.701172,-10.771485 C 42.729563,25.35064 39.465157,24 35.993157,24 Z m -0.002,2 c 2.938,0 5.702297,1.144656 7.779297,3.222656 2.488,2.488 3.633406,6.057781 3.066407,9.550781 -0.051,0.317 0.0523,0.640188 0.279296,0.867188 l 2.310547,2.310547 -8.486328,8.484375 -2.308594,-2.310547 c -0.189,-0.189 -0.444031,-0.292969 -0.707031,-0.292969 -0.053,0 -0.107156,0.0047 -0.160156,0.01367 -3.493,0.564 -7.062781,-0.579406 -9.550781,-3.066406 -4.289001,-4.289 -4.289001,-11.267641 0,-15.556641 2.078,-2.078 4.839343,-3.222656 7.777343,-3.222656 z m -4.230468,3.796875 c -0.77725,0 -1.554594,0.282609 -2.121094,0.849609 -0.567,0.566 -0.878906,1.320094 -0.878906,2.121094 0,0.801 0.311906,1.554094 0.878906,2.121094 0.661,0.662 1.60825,0.968843 2.53125,0.839843 l 3.416016,5.091797 c 0.083,0.125 0.216234,0.20475 0.365234,0.21875 0.016,10e-4 0.03283,0.002 0.04883,0.002 0.132,0 0.258516,-0.05248 0.353516,-0.146484 l 3.537109,-3.535156 c 0.106,-0.105 0.157578,-0.253344 0.142578,-0.402344 -0.015,-0.149 -0.09475,-0.284188 -0.21875,-0.367187 l -5.091797,-3.414063 c 0.128,-0.925 -0.179797,-1.867297 -0.841797,-2.529297 -0.5665,-0.567 -1.343843,-0.849609 -2.121093,-0.849609 z m 0.002,0.990234 c 0.518,0 1.036062,0.188406 1.414062,0.566406 0.504,0.504 0.692813,1.224782 0.507813,1.925782 -0.055,0.206 0.02808,0.423015 0.205078,0.541015 l 4.863281,3.261719 -2.675781,2.677734 -3.261719,-4.863281 c -0.094,-0.141 -0.252016,-0.222656 -0.416015,-0.222656 -0.042,0 -0.08495,0.0056 -0.126954,0.01758 -0.701,0.184 -1.419828,-0.0058 -1.923828,-0.509766 -0.378,-0.378 -0.585937,-0.879062 -0.585937,-1.414062 0,-0.535 0.207937,-1.036063 0.585937,-1.414063 0.378,-0.378 0.896063,-0.566406 1.414063,-0.566406 z M 49.42675,44.7793 69.922844,65.275393 69.688469,66.453128 48.719719,45.486331 49.42675,44.7793 Z m -1.414062,1.414062 21.439453,21.4375 -0.181641,0.917969 -0.251953,0.0625 -21.71289,-21.712891 0.707031,-0.705078 z m -1.414063,1.414063 21.28711,21.287109 -4.525391,1.132813 -1.546875,-1.548829 -0.433594,-1.978515 c -0.085,-0.388 -0.39325,-0.687625 -0.78125,-0.765625 l -1.912109,-0.382813 -1.095703,-1.09375 -0.332032,-1.667968 c -0.079,-0.396001 -0.390156,-0.706157 -0.785156,-0.785157 L 55.163078,61.542971 54.90136,60.232425 c -0.079,-0.396 -0.390157,-0.704203 -0.785157,-0.783204 l -1.666015,-0.333984 -1.109375,-1.109375 -0.353516,-3.185547 c -0.051,-0.456 -0.404375,-0.820812 -0.859375,-0.882812 L 46.827141,53.49219 43.7705,50.43555 46.598625,47.607425 Z"></path></svg>