<svg xmlns="http://www.w3.org/2000/svg" width="96" height="96" viewBox="0 0 96 96" id="key"><path fill-rule="evenodd" d="M 48 0 A 48 48 0 0 0 0 48 A 48 48 0 0 0 48 96 A 48 48 0 0 0 96 48 A 48 48 0 0 0 48 0 z M 35.992188 24 C 39.464188 24 42.728594 25.350641 45.183594 27.806641 C 48.002594 30.624641 49.365766 34.619125 48.884766 38.578125 L 51.548828 41.242188 C 51.736828 41.429187 51.841797 41.684219 51.841797 41.949219 C 51.841797 42.214219 51.736828 42.46825 51.548828 42.65625 L 50.841797 43.363281 L 71.716797 64.238281 C 71.952801 64.475281 72.054281 64.814625 71.988281 65.140625 L 71.105469 69.558594 C 71.030469 69.937593 70.742188 70.239984 70.367188 70.333984 L 63.296875 72.101562 C 63.216875 72.121563 63.135688 72.130859 63.054688 72.130859 C 62.792688 72.130859 62.536656 72.027891 62.347656 71.837891 L 60.193359 69.683594 C 60.058359 69.547593 59.964828 69.378406 59.923828 69.191406 L 59.566406 67.564453 L 57.996094 67.25 C 57.802094 67.212 57.626328 67.116563 57.486328 66.976562 L 55.964844 65.455078 C 55.825844 65.316078 55.729406 65.139313 55.691406 64.945312 L 55.429688 63.634766 L 54.117188 63.373047 C 53.722186 63.294047 53.412984 62.983891 53.333984 62.587891 L 53.070312 61.277344 L 51.759766 61.015625 C 51.565766 60.977625 51.388047 60.882188 51.248047 60.742188 L 49.677734 59.171875 C 49.516734 59.010875 49.415625 58.800219 49.390625 58.574219 L 49.083984 55.814453 L 46.224609 55.427734 C 46.007609 55.397734 45.805391 55.299531 45.650391 55.144531 L 42.355469 51.847656 L 41.648438 52.554688 C 41.453437 52.749686 41.197406 52.847656 40.941406 52.847656 C 40.685406 52.847656 40.429375 52.749688 40.234375 52.554688 L 37.570312 49.890625 C 33.612313 50.373625 29.619781 49.010406 26.800781 46.191406 C 21.731781 41.123406 21.731781 32.874641 26.800781 27.806641 C 29.255781 25.350641 32.520187 24 35.992188 24 z M 35.990234 26 C 33.052234 26 30.290891 27.144656 28.212891 29.222656 C 23.92389 33.511656 23.92389 40.490297 28.212891 44.779297 C 30.700891 47.266297 34.270672 48.409703 37.763672 47.845703 C 37.816672 47.836733 37.870828 47.832031 37.923828 47.832031 C 38.186828 47.832031 38.441859 47.936 38.630859 48.125 L 40.939453 50.435547 L 49.425781 41.951172 L 47.115234 39.640625 C 46.888238 39.413625 46.784937 39.090438 46.835938 38.773438 C 47.402937 35.280438 46.257531 31.710656 43.769531 29.222656 C 41.692531 27.144656 38.928234 26 35.990234 26 z M 31.759766 29.796875 C 32.537016 29.796875 33.314359 30.079484 33.880859 30.646484 C 34.542859 31.308484 34.850656 32.250781 34.722656 33.175781 L 39.814453 36.589844 C 39.938453 36.672843 40.018203 36.808031 40.033203 36.957031 C 40.048203 37.106031 39.996625 37.254375 39.890625 37.359375 L 36.353516 40.894531 C 36.258516 40.988535 36.132 41.041016 36 41.041016 C 35.984 41.041016 35.967172 41.040062 35.951172 41.039062 C 35.802172 41.025062 35.668937 40.945312 35.585938 40.820312 L 32.169922 35.728516 C 31.246922 35.857516 30.299672 35.550672 29.638672 34.888672 C 29.071672 34.321672 28.759766 33.568578 28.759766 32.767578 C 28.759766 31.966578 29.071672 31.212484 29.638672 30.646484 C 30.205172 30.079484 30.982516 29.796875 31.759766 29.796875 z M 31.761719 30.787109 C 31.243719 30.787109 30.725656 30.975516 30.347656 31.353516 C 29.969656 31.731516 29.761719 32.232578 29.761719 32.767578 C 29.761719 33.302578 29.969656 33.803641 30.347656 34.181641 C 30.851656 34.685607 31.570484 34.875406 32.271484 34.691406 C 32.313488 34.679426 32.356437 34.673828 32.398438 34.673828 C 32.562437 34.673828 32.720453 34.755484 32.814453 34.896484 L 36.076172 39.759766 L 38.751953 37.082031 L 33.888672 33.820312 C 33.711674 33.702312 33.628594 33.485297 33.683594 33.279297 C 33.868594 32.578297 33.679781 31.857516 33.175781 31.353516 C 32.797781 30.975516 32.279719 30.787109 31.761719 30.787109 z M 49.425781 44.779297 L 48.71875 45.486328 L 69.6875 66.453125 L 69.921875 65.275391 L 49.425781 44.779297 z M 48.011719 46.193359 L 47.304688 46.898438 L 69.017578 68.611328 L 69.269531 68.548828 L 69.451172 67.630859 L 48.011719 46.193359 z M 46.597656 47.607422 L 43.769531 50.435547 L 46.826172 53.492188 L 50.126953 53.9375 C 50.581953 53.9995 50.935328 54.364312 50.986328 54.820312 L 51.339844 58.005859 L 52.449219 59.115234 L 54.115234 59.449219 C 54.510234 59.52822 54.821391 59.836422 54.900391 60.232422 L 55.162109 61.542969 L 56.472656 61.804688 C 56.867656 61.883688 57.178812 62.193843 57.257812 62.589844 L 57.589844 64.257812 L 58.685547 65.351562 L 60.597656 65.734375 C 60.985656 65.812375 61.293906 66.112 61.378906 66.5 L 61.8125 68.478516 L 63.359375 70.027344 L 67.884766 68.894531 L 46.597656 47.607422 z "></path></svg>